<svg width="32" height="32" viewBox="0 0 32 32" fill="none" xmlns="http://www.w3.org/2000/svg">
<path d="M4.12187 1.97498C2.9375 1.97498 1.96875 2.94373 1.96875 4.1281V17.0375C1.96875 18.2218 2.93437 19.1906 4.12187 19.1906H12.7281V27.7968C12.7281 28.975 13.7031 29.95 14.8812 29.95H27.7906C28.9687 29.95 29.9437 28.975 29.9437 27.7968V14.8875C29.9437 13.7093 28.9687 12.7343 27.7906 12.7343H19.1844V4.1281C19.1844 2.94373 18.2187 1.97498 17.0312 1.97498H4.12187ZM27.7906 4.1281L23.4875 7.35623L27.7906 10.5843V4.1281ZM19.1844 14.8875H27.7906V27.7968H14.8812V19.1906H17.0312C18.2156 19.1906 19.1844 18.225 19.1844 17.0375V14.8875Z" fill="currentColor"/>
</svg>
