<svg width="35" height="35" viewBox="0 0 35 35" fill="none" xmlns="http://www.w3.org/2000/svg">
<g clip-path="url(#clip0_2_54)">
<path d="M1.0962 28.4296C0.84147 28.4302 0.59452 28.3419 0.397976 28.1798C0.201433 28.0178 0.0676319 27.7922 0.0196717 27.542C-0.0282886 27.2919 0.0126018 27.0328 0.135284 26.8096C0.257966 26.5863 0.45474 26.4129 0.691637 26.3193L10.6088 22.3503C10.7423 22.2971 10.885 22.2708 11.0287 22.2728C11.1724 22.2749 11.3143 22.3052 11.4463 22.362C11.5783 22.4189 11.6978 22.5012 11.798 22.6042C11.8982 22.7073 11.9771 22.829 12.0302 22.9626C12.0834 23.0961 12.1097 23.2388 12.1076 23.3825C12.1056 23.5262 12.0753 23.6681 12.0185 23.8001C11.9616 23.9321 11.8793 24.0516 11.7763 24.1518C11.6732 24.252 11.5515 24.3309 11.4179 24.384C0.53856 28.7357 1.40235 28.4296 1.0962 28.4296ZM17.4972 9.84173C17.2073 9.84173 16.9291 9.72653 16.7241 9.52148C16.519 9.31642 16.4038 9.03831 16.4038 8.74832V1.0945C16.4038 0.804513 16.519 0.526402 16.7241 0.321349C16.9291 0.116296 17.2073 0.00109863 17.4972 0.00109863C17.7872 0.00109863 18.0653 0.116296 18.2704 0.321349C18.4754 0.526402 18.5906 0.804513 18.5906 1.0945V8.74832C18.5906 8.89191 18.5624 9.03409 18.5074 9.16675C18.4525 9.29941 18.3719 9.41994 18.2704 9.52148C18.1689 9.62301 18.0483 9.70355 17.9157 9.7585C17.783 9.81345 17.6408 9.84173 17.4972 9.84173ZM33.8983 28.4296C33.5921 28.4296 34.3247 28.6811 23.5766 24.384C23.443 24.3309 23.3213 24.252 23.2182 24.1518C23.1152 24.0516 23.0329 23.9321 22.976 23.8001C22.8612 23.5335 22.857 23.2323 22.9643 22.9626C23.0716 22.6929 23.2816 22.4769 23.5482 22.362C23.8147 22.2472 24.116 22.243 24.3857 22.3503L34.3028 26.3193C34.5397 26.4129 34.7365 26.5863 34.8592 26.8096C34.9819 27.0328 35.0228 27.2919 34.9748 27.542C34.9269 27.7922 34.7931 28.0178 34.5965 28.1798C34.4 28.3419 34.153 28.4302 33.8983 28.4296Z" fill="currentColor"/>
<path d="M1.09619 28.4296C0.9526 28.4296 0.810418 28.4013 0.677761 28.3463C0.545103 28.2914 0.424567 28.2108 0.323035 28.1093C0.221503 28.0078 0.140964 27.8872 0.0860151 27.7546C0.0310664 27.6219 0.00278473 27.4797 0.00278473 27.3362V7.6549C0.00278474 7.36491 0.117982 7.0868 0.323035 6.88174C0.528088 6.67669 0.806199 6.56149 1.09619 6.56149C1.38618 6.56149 1.66429 6.67669 1.86934 6.88174C2.07439 7.0868 2.18959 7.36491 2.18959 7.6549V27.3362C2.18959 27.6261 2.07439 27.9043 1.86934 28.1093C1.66429 28.3144 1.38618 28.4296 1.09619 28.4296Z" fill="currentColor"/>
<path d="M17.4972 27.3361C15.5509 27.3361 13.6484 26.759 12.0301 25.6777C10.4118 24.5964 9.1505 23.0595 8.40569 21.2614C7.66087 19.4632 7.466 17.4846 7.8457 15.5757C8.2254 13.6668 9.16263 11.9134 10.5389 10.5371C11.9151 9.1609 13.6685 8.22367 15.5774 7.84397C17.4863 7.46426 19.4649 7.65914 21.2631 8.40395C23.0612 9.14877 24.5981 10.4101 25.6794 12.0283C26.7607 13.6466 27.3379 15.5492 27.3379 17.4955C27.3379 20.1054 26.3011 22.6084 24.4556 24.4539C22.6101 26.2994 20.1071 27.3361 17.4972 27.3361ZM17.4972 9.84169C15.9835 9.84169 14.5037 10.2906 13.245 11.1316C11.9863 11.9726 11.0053 13.168 10.426 14.5665C9.84673 15.9651 9.69516 17.504 9.99048 18.9887C10.2858 20.4734 11.0148 21.8372 12.0852 22.9076C13.1556 23.978 14.5194 24.7069 16.0041 25.0023C17.4888 25.2976 19.0277 25.146 20.4262 24.5667C21.8248 23.9874 23.0201 23.0064 23.8612 21.7477C24.7022 20.4891 25.1511 19.0093 25.1511 17.4955C25.1511 15.4656 24.3447 13.5188 22.9093 12.0834C21.4739 10.6481 19.5272 9.84169 17.4972 9.84169Z" fill="#4B98EC"/>
<path d="M33.8982 13.1219C34.0418 13.1219 34.184 13.0936 34.3166 13.0387C34.4493 12.9837 34.5698 12.9032 34.6714 12.8016C34.7729 12.7001 34.8534 12.5796 34.9084 12.4469C34.9633 12.3143 34.9916 12.1721 34.9916 12.0285C34.9916 7.26126 34.9916 7.56741 34.9151 7.28312C34.6855 6.63802 35.6039 7.16285 17.9017 0.0775969C17.6419 -0.0258656 17.3524 -0.0258656 17.0926 0.0775969C-0.467458 7.09725 0.23232 6.64895 0.057375 7.4034C-0.00826146 7.56463 -0.00826146 7.74513 0.057375 7.90636C0.23232 8.67175 -0.456525 8.21252 16.4584 14.9588V32.2783L1.50067 26.3193C1.36714 26.266 1.22443 26.2396 1.08069 26.2416C0.93695 26.2435 0.795006 26.2738 0.662981 26.3307C0.530956 26.3875 0.411442 26.4699 0.311277 26.573C0.211113 26.6761 0.132264 26.798 0.0792431 26.9316C0.0259819 27.0651 -0.000426906 27.2078 0.00152779 27.3516C0.00348249 27.4953 0.0337624 27.6372 0.0906346 27.7693C0.147507 27.9013 0.229855 28.0208 0.332967 28.121C0.436079 28.2211 0.557931 28.3 0.691549 28.353C18.678 35.5476 16.9614 34.826 17.0926 34.9134C17.2275 34.9706 17.3725 35 17.519 35C17.6655 35 17.8105 34.9706 17.9455 34.9134L34.3465 28.353C34.5418 28.2653 34.707 28.1221 34.8217 27.9414C34.9363 27.7606 34.9954 27.5502 34.9916 27.3361V16.4021C34.9916 16.1121 34.8764 15.834 34.6714 15.629C34.4663 15.4239 34.1882 15.3087 33.8982 15.3087C33.6082 15.3087 33.3301 15.4239 33.1251 15.629C32.92 15.834 32.8048 16.1121 32.8048 16.4021V26.5926L18.5906 32.2783V14.9588L32.8048 9.27312V12.0285C32.8048 12.3185 32.92 12.5966 33.1251 12.8016C33.3301 13.0067 33.6082 13.1219 33.8982 13.1219ZM17.4972 2.27534L30.957 7.65488L17.4972 13.0344L4.03736 7.65488L17.4972 2.27534Z" fill="currentColor"/>
</g>
<defs>
<clipPath id="clip0_2_54">
<rect width="35" height="35" fill="currentColor"/>
</clipPath>
</defs>
</svg>
